# Blender v2.91.0 OBJ File: 'pen.blend'
# www.blender.org
o Pen_TruncatedOctahedron.001
v -0.094291 -0.000002 -0.000000
v -0.094291 0.349784 0.047135
v -0.094290 0.699569 -0.000000
v -0.094291 0.349784 -0.047135
v 0.000001 -0.349945 0.047135
v 0.000001 -0.000002 0.094292
v -0.047134 0.349784 0.094292
v -0.047134 -0.349945 -0.000000
v 0.047136 -0.349945 -0.000000
v 0.094285 -0.000060 -0.000000
v 0.094285 0.349784 0.047143
v 0.047137 0.349784 0.094292
v 0.047137 0.349784 -0.094292
v 0.094285 0.349784 -0.047143
v 0.000001 -0.349945 -0.047135
v 0.000001 -0.000002 -0.094292
v 0.047142 1.049470 -0.000000
v 0.094285 0.699628 -0.000000
v 0.000002 0.699569 -0.094292
v 0.000002 1.049470 -0.047141
v 0.000002 1.049470 0.047141
v 0.000002 0.699569 0.094292
v -0.047139 1.049470 -0.000000
v -0.047134 0.349784 -0.094292
vn -1.0000 0.0000 0.0000
vn -0.7039 -0.0949 0.7039
vn 0.7039 -0.0949 0.7039
vn 0.7039 -0.0949 -0.7039
vn 0.7039 0.0949 -0.7039
vn 0.7039 0.0949 0.7039
vn 1.0000 -0.0000 -0.0000
vn 0.0000 1.0000 0.0000
vn -0.7039 0.0949 -0.7039
vn 0.0000 0.0000 -1.0000
vn -0.7039 -0.0949 -0.7039
vn -0.0000 -1.0000 0.0000
vn -0.7039 0.0949 0.7039
vn 0.0000 0.0000 1.0000
s 1
f 2//1 4//1 1//1
f 1//2 8//2 6//2
f 6//3 5//3 10//3
f 16//4 10//4 15//4
f 20//5 14//5 19//5
f 21//6 22//6 11//6
f 18//7 10//7 14//7
f 17//8 23//8 21//8
f 4//9 3//9 23//9
f 24//10 13//10 16//10
f 15//11 8//11 1//11
f 8//12 9//12 5//12
f 21//13 23//13 2//13
f 12//14 7//14 6//14
f 2//1 3//1 4//1
f 8//2 5//2 6//2
f 6//2 7//2 2//2
f 2//2 1//2 6//2
f 5//3 9//3 10//3
f 10//3 11//3 6//3
f 11//3 12//3 6//3
f 16//4 13//4 14//4
f 14//4 10//4 16//4
f 10//4 9//4 15//4
f 20//5 17//5 18//5
f 18//5 14//5 20//5
f 14//5 13//5 19//5
f 22//6 12//6 11//6
f 11//6 18//6 17//6
f 17//6 21//6 11//6
f 18//7 11//7 10//7
f 17//8 20//8 23//8
f 23//9 20//9 4//9
f 20//9 19//9 24//9
f 4//9 20//9 24//9
f 24//10 19//10 13//10
f 1//11 4//11 24//11
f 24//11 16//11 1//11
f 16//11 15//11 1//11
f 8//12 15//12 9//12
f 3//13 2//13 23//13
f 2//13 7//13 21//13
f 7//13 22//13 21//13
f 12//14 22//14 7//14
